<?xml version="1.0" encoding="utf-8"?>
<!-- Generator: Adobe Illustrator 27.5.0, SVG Export Plug-In . SVG Version: 6.00 Build 0)  -->
<svg version="1.1" id="Layer_1" xmlns="http://www.w3.org/2000/svg" xmlns:xlink="http://www.w3.org/1999/xlink" x="0px" y="0px"
	 viewBox="0 0 5000 4000" style="enable-background:new 0 0 5000 4000;" xml:space="preserve">
<g>
	<g>
		<g>
			<rect style="fill:#FFFFFF;" width="5000" height="4000"/>
		</g>
	</g>
	<g style="opacity:0.2;">
		<g>
			
				<path style="fill:none;stroke:#0F31AC;stroke-width:20;stroke-linecap:round;stroke-miterlimit:10;stroke-dasharray:50,50,50,50,50,50;" d="
				M1284.181,1141.937c-55.304-26.007-146.764,16.278-175.926,78.156c-55.668,118.122,124.378,289.192,189.854,270.831
				C1371.276,1470.406,1385.72,1189.685,1284.181,1141.937z"/>
			
				<path style="fill:none;stroke:#0F31AC;stroke-width:20;stroke-linecap:round;stroke-miterlimit:10;stroke-dasharray:50,50,50,50,50,50;" d="
				M1007.565,1409.484c-19.737-11.417-228.805-132.355-347.122-36.642c-83.076,67.205-83.871,210.855-21.441,291.591
				c123.648,159.904,507.069,88.214,546.852-26.205C1212.644,1561.176,1086.865,1455.356,1007.565,1409.484z"/>
			
				<path style="fill:none;stroke:#0F31AC;stroke-width:20;stroke-linecap:round;stroke-miterlimit:10;stroke-dasharray:50,50,50,50,50,50;" d="
				M1276.577,3384c508.89-126.31,1087.12-254.9,1985-233c502.15,12.25,615.94-143.58,996.51-337.33
				c339.21-172.68,505.81-516.06,403.49-710.67c-103.3-196.47-417.94-118.25-675.62-410.71c-117.35-133.2-96.7-226.56-164.45-374.27
				c-214.55-467.71-1018.68-833.28-1415.21-639.81c-523.87,255.59-76.01,1359.96-661.6,1661.64
				c-370.41,190.84-650.38-175.51-1016.12,104.15c-181.22,138.57-402.859,332.948-420,544C308.577,2988,284.577,3504,1276.577,3384z
				"/>
		</g>
		<path style="fill:#ACBCF8;" d="M4088.14,2809.3c0,0-92.18,122.22-184.38,289.91c-83.12,151.22-146.33,354.98-160.29,525.1
			c-39.15-1.85-82.15-3.59-128.64-5.24c-275.34-9.77-672.84-15.89-1114.83-15.89c-502.48,0-947.45,7.92-1220.8,20.1
			c-9.41,0.42-18.62,0.84-27.62,1.27C910.31,3201.56,223.1,2464.63,855.52,2161.47c0,0,46.33-14.11,115.79-44.42
			c219.84-95.95,671.6-354.14,621.35-840.95c0,0-17.12-90.84-17.12-217.24c0-295.56,93.57-785.48,718.25-763.12
			c378.29,13.56,726.68,206.06,937.31,514.18c206.6,302.21,536.94,674.04,805.96,461.76c62.1-49.02,144.21-67.18,220.87-45.63
			C4451.57,1280.44,4671.55,1562.01,4088.14,2809.3z"/>
	</g>
	<path style="opacity:0.15;" d="M4685.814,3640.772c0,20.002-978.623,36.219-2185.814,36.219
		c-681.142,0-1289.512-5.161-1690.389-13.256c-92.335-1.865-173.648-3.885-242.308-6.031c-45.226-1.412-84.96-2.888-118.74-4.409
		c-86.91-3.894-134.377-8.113-134.377-12.523c0-5.614,77.043-10.929,214.55-15.665c56.313-1.947,122.759-3.794,198.21-5.514
		c397.004-9.109,1043.265-15.04,1773.055-15.04c641.938,0,1219.247,4.582,1619.142,11.889
		C4471.251,3622.871,4685.814,3631.409,4685.814,3640.772z"/>
	<g>
		<path style="fill:#040C2B;" d="M3865.931,3367.879H1134.069c-36.661,0-66.38-29.719-66.38-66.38V1689.1
			c0-36.661,29.719-66.38,66.38-66.38h2731.863c36.661,0,66.38,29.719,66.38,66.38v1612.399
			C3932.311,3338.16,3902.592,3367.879,3865.931,3367.879z"/>
		<g>
			<g>
				<rect x="1172.318" y="1701.215" style="fill:#FFFFFF;" width="2655.364" height="1588.17"/>
			</g>
		</g>
		<g>
			<rect x="2121.106" y="3367.343" style="fill:#040C2B;" width="757.788" height="187.363"/>
			<path style="fill:#040C2B;" d="M3117.511,3635.394H1882.489v-83.422c0-7.584,6.148-13.733,13.733-13.733h1207.557
				c7.584,0,13.733,6.148,13.733,13.733V3635.394z"/>
		</g>
		<rect x="2121.106" y="3367.343" style="opacity:0.5;" width="757.788" height="175.836"/>
		
			<radialGradient id="SVGID_1_" cx="3252.8369" cy="4645.1563" r="38.1307" gradientTransform="matrix(0.6453 0 0 0.6516 392.6079 302.8245)" gradientUnits="userSpaceOnUse">
			<stop  offset="0" style="stop-color:#E5E5E5"/>
			<stop  offset="1" style="stop-color:#CBCBCB"/>
		</radialGradient>
		<ellipse style="fill:url(#SVGID_1_);" cx="2491.664" cy="3329.608" rx="24.607" ry="24.845"/>
		<g>
			<g>
				<g>
					<path style="fill:#0F31AC;" d="M2226.377,3054.874h-95.586v-171.469h95.586v17.71h-75.648v55.241h71.074v17.593h-71.074v63.099
						h75.648V3054.874z"/>
				</g>
				<g>
					<path style="fill:#0F31AC;" d="M2284.315,2983.565v71.309h-19.938v-171.469h47.031c21.033,0,36.573,4.028,46.62,12.08
						c10.047,8.054,15.071,20.174,15.071,36.359c0,22.676-11.494,38-34.481,45.975l46.562,77.055h-23.574l-41.518-71.309H2284.315z
						 M2284.315,2966.442h27.327c14.074,0,24.395-2.796,30.963-8.386c6.568-5.59,9.852-13.975,9.852-25.157
						c0-11.336-3.343-19.509-10.028-24.513c-6.685-5.003-17.417-7.506-32.195-7.506h-25.92V2966.442z"/>
				</g>
				<g>
					<path style="fill:#0F31AC;" d="M2432.796,2983.565v71.309h-19.938v-171.469h47.031c21.032,0,36.573,4.028,46.62,12.08
						c10.046,8.054,15.071,20.174,15.071,36.359c0,22.676-11.494,38-34.481,45.975l46.562,77.055h-23.574l-41.519-71.309H2432.796z
						 M2432.796,2966.442h27.327c14.074,0,24.395-2.796,30.963-8.386c6.568-5.59,9.852-13.975,9.852-25.157
						c0-11.336-3.343-19.509-10.028-24.513c-6.685-5.003-17.417-7.506-32.194-7.506h-25.92V2966.442z"/>
				</g>
				<g>
					<path style="fill:#0F31AC;" d="M2710.173,2968.905c0,27.444-6.94,49.025-20.818,64.74
						c-13.879,15.716-33.173,23.574-57.88,23.574c-25.256,0-44.744-7.722-58.466-23.164s-20.583-37.238-20.583-65.386
						c0-27.914,6.88-49.552,20.642-64.917c13.761-15.364,33.309-23.046,58.642-23.046c24.63,0,43.864,7.819,57.704,23.457
						C2703.253,2919.803,2710.173,2941.383,2710.173,2968.905z M2573.537,2968.905c0,23.222,4.945,40.833,14.836,52.836
						c9.891,12.003,24.258,18.003,43.102,18.003c19,0,33.347-5.981,43.043-17.944c9.695-11.963,14.543-29.595,14.543-52.895
						c0-23.065-4.829-40.562-14.485-52.485c-9.657-11.923-23.946-17.886-42.867-17.886c-19,0-33.446,6.001-43.336,18.003
						C2578.482,2928.541,2573.537,2945.995,2573.537,2968.905z"/>
				</g>
				<g>
					<path style="fill:#0F31AC;" d="M2768.345,2983.565v71.309h-19.938v-171.469h47.031c21.032,0,36.573,4.028,46.62,12.08
						c10.047,8.054,15.071,20.174,15.071,36.359c0,22.676-11.494,38-34.482,45.975l46.562,77.055h-23.574l-41.519-71.309H2768.345z
						 M2768.345,2966.442h27.327c14.074,0,24.395-2.796,30.963-8.386c6.568-5.59,9.852-13.975,9.852-25.157
						c0-11.336-3.343-19.509-10.028-24.513c-6.685-5.003-17.417-7.506-32.194-7.506h-25.92V2966.442z"/>
				</g>
			</g>
			<g>
				<polygon style="fill:#F6471E;" points="2500,1933.381 1994.041,2730.735 3005.959,2730.735 				"/>
				<polygon style="fill:#FFFFFF;" points="2500,2025.677 2092.136,2668.44 2907.864,2668.44 				"/>
				<g>
					<path d="M2548.4,2264.058l-10.4,189.6h-76l-10.399-189.6H2548.4z M2544,2481.257v84.801h-88v-84.801H2544z"/>
				</g>
			</g>
		</g>
	</g>
	<g>
		<path style="fill:#DB965F;" d="M837.552,3435.576c0,0-12.312,106.68,0,131.011l-90.579,17.78l27.262-174.993L837.552,3435.576z"/>
		<path style="fill:#040C2B;" d="M834.452,3634.074c0,0,74.278,19.498,131.163,3.84c8.478-2.333,13.789-11.334,11.93-20.439
			c-2.251-11.029-11.667-24.289-42.08-29.541c0,0-81.765-37.632-104.516-67.573c0,0-47.099,25.045-75.195,5.62
			c0,0-21.369,16.342-24.854,48.54c-2.536,23.426,13.379,44.579,35.382,47.391C789.372,3624.862,819.997,3629.373,834.452,3634.074z
			"/>
		<path style="fill:#DB965F;" d="M717.792,3423.41c0,0-12.312,106.68,0,131.011l-90.579,17.78l27.262-174.993L717.792,3423.41z"/>
		<path style="fill:#040C2B;" d="M716.272,3633.845c0,0,74.278,19.498,131.163,3.84c8.478-2.333,13.789-11.334,11.93-20.439
			c-2.251-11.029-11.667-24.289-42.08-29.541c0,0-81.765-37.632-104.515-67.573c0,0-49.547,19.346-77.643-0.08
			c0,0-18.922,22.042-22.406,54.24c-2.536,23.426,13.379,44.579,35.381,47.391C671.191,3624.633,701.816,3629.144,716.272,3633.845z
			"/>
		<path style="fill:#040C2B;" d="M740.983,2630.443l57.876,398.061l-35.178,415.492l18.133,2.944l74.21,12.03l69.381-400.783
			c7.076-40.896,10.329-82.438,9.714-124.023l-5.229-351.09l-191.712,28.075L740.983,2630.443z"/>
		<polygon style="opacity:0.15;" points="798.859,3028.504 763.681,3443.996 781.813,3446.94 846.709,3037.955 859.501,2630.443 
			740.983,2630.443 		"/>
		<path style="fill:#040C2B;" d="M659.471,2595.704c0,0-28.141,68.313-14.95,235.819l11.107,211.537l-22.1,415.911l97.253,6.064
			l66.186-353.01c11.817-63.997,18.214-128.993,19.112-194.207l4.765-345.977L659.471,2595.704z"/>
		<path style="fill:#DB965F;" d="M942.649,2521.546l-4.029-11.102l-43.717-123.249l34.994-5.385l15.846-2.442l32.396-4.985
			l15.542,65.406l3.878,16.315l167.61-52.791c0,0,8.504-26.699,35.232-53.981c5.984,1.532,8.651,8.986,5.14,14.365l-10.319,15.811
			c0,0,42.187-33.825,70.199-23.152c0,0,5.627,5.91-10.75,41.968c0,0-5.086,54.121-70.356,55.023l-215.865,80.872
			C958.073,2537.591,946.969,2532.137,942.649,2521.546L942.649,2521.546"/>
		<path style="fill:#C9885B;" d="M882.689,2271.428l-63.16,33.176l-108.739-20.422l-0.398-75.291c0,0,47.173-27.223,43.977-63.808
			l-1.466-11.275l-8.926-68.697l27.134,12.529l15.368,7.099l63.431,29.297l-11.579,75.922l-1.602,10.509
			c-0.576,3.788-0.008,7.64,1.568,11.022c0.534,1.173,1.195,2.282,1.967,3.319l15.105,20.151L882.689,2271.428z"/>
		<path style="opacity:0.15;" d="M743.973,2065.115l9.994,77.844c37.137,68.698,84.131,84.786,101.401,92.001l-15.103-20.155
			c-3.022-4.041-4.309-9.239-3.534-14.335l13.176-86.437L743.973,2065.115z"/>
		<path style="fill:#DB965F;" d="M900.676,2048.099c0,0-12.791,154.839-57.565,147.181c0,0-7.646-1.371-20.056-7.865
			c-6.714-3.509-14.834-8.524-23.887-15.632c-17.004-13.368-37.34-34.132-57.997-66.253l-12.385-32.761l35.822-40.599l0.949-1.082
			l12.283,1.542L900.676,2048.099z"/>
		<path d="M827.92,1971.532c0,0,131.867,21.586,67.532,117.989c0,0-11.567,1.968-25.159-41.42c0,0-9.594,46.792-82.349,24.672
			c0,0-1.599,26.374-6.396,34.03h-7.195c0,0,0.799-27.224-19.987-33.179c0,0-25.584-4.254-11.193,33.179l9.194,15.739l2.145,25.558
			c0,0-28.928-54.909-33.725-88.089c0,0-11.992-54.448,32.78-83.374C753.567,1976.636,790.344,1946.86,827.92,1971.532z"/>
		<g>
			<path style="fill:#0F31AC;" d="M923.061,2464.971l22.226-8.201l45.995-16.981l10.13-3.743
				c-25.28-141.387-49.833-170.134-61.05-175.452c-4.046-1.914-6.356-0.791-6.356-0.791l-6.508,122.007L923.061,2464.971z"/>
		</g>
		<path style="opacity:0.15;" d="M892.504,2391.421l43.717,120.724l9.066-52.574l-1.943-75.816l-2.982-116.34
			c-4.046-1.875-6.356-0.775-6.356-0.775l-6.508,119.507L892.504,2391.421z"/>
		<g>
			<path style="fill:#0F31AC;" d="M615.269,2415.601l4.293,226.267l0.2,10.379c0.176,9.469,5.828,17.866,14.231,21.005
				c55.365,20.69,125.186,20.699,185.204,14.454h0.048v-0.009c48.514-5.036,90.623-14.165,113.497-19.746
				c10.489-2.552,17.549-13,16.518-24.391l-14.071-154.991c-0.088-0.987-0.12-1.974-0.088-2.961l6.924-217.862
				c0.136-4.203-2.159-8.057-5.78-9.716l-69.053-31.716l-2.774-1.276l-25.136-11.545c9.682,26.118,0.04,40.283-12.016,47.915
				c-5.605,3.556-11.817,5.615-18.149,6.228c-1.503,0.145-3.006,0.213-4.517,0.187c-6.364-0.068-12.744-1.591-18.66-4.518
				c-73.49-36.327-57.524-67.754-57.524-67.754l-22.442,15.62l-3.742,2.603l-79.782,55.521l-6.06,122.534l-1.095,22.12
				C615.269,2414.504,615.261,2415.057,615.269,2415.601z"/>
		</g>
		<path style="opacity:0.15;" d="M804.599,2267.825l9.482,419.883h5.165v-0.009l-10.33-418.768l0.2-1.293
			C807.613,2267.782,806.11,2267.85,804.599,2267.825z"/>
		<path style="opacity:0.15;" d="M809.14,2268.029c0.216,0.442,8.89,17.747,16.781,9.35l5.053,21.847
			c0,0,38.632-13.782,36.217-72.91l-2.774-1.276c1.535,17.458-2.279,44.571-32.1,68.503l-4.797-22.12
			C827.521,2271.424,818.734,2279.08,809.14,2268.029z"/>
		<path style="opacity:0.15;" d="M796.844,2278.008c6.364-1.54,7.419-9.367,7.483-9.954
			C803.232,2272.657,800.026,2275.873,796.844,2278.008z"/>
		<path style="opacity:0.15;" d="M702.231,2213.776c8.978,23.617,30.277,55.104,79.718,85.722l7.195-17.866
			c0,0,3.838-1.021,7.699-3.624c-2.327,0.562-5.349,0.289-9.298-1.48l-5.596,17.015c0,0-64.472-35.468-75.977-82.37
			L702.231,2213.776z"/>
		<polygon style="opacity:0.15;" points="615.253,2414.776 619.563,2641.869 633.642,2642.779 665.766,2388.147 616.388,2391.831 		
			"/>
		<g>
			<path style="fill:#829CF8;" d="M1307.382,2208.65l-65.524,82.712c-27.905,35.225-71.964,44.552-98.406,20.832v0
				c-26.443-23.72-25.258-71.505,2.648-106.73l65.603-82.812c-49.878-6.136-107.028,18.827-148.419,70.238
				c-30.293,37.626-46.161,82.151-47.369,123.633c-0.594,20.402-8.722,41.51-22.369,58.737l-289.417,365.336
				c-33.857,42.739-35.295,100.715-3.212,129.494l0,0c32.083,28.779,85.538,17.463,119.395-25.276l288.708-364.441
				c13.794-17.412,32.207-29.512,51.203-33.521c38.009-8.021,76.415-31.777,106.196-69.371
				C1307.677,2325.403,1321.539,2260.455,1307.382,2208.65z M737.724,2824.352c-13.499-12.109-13.846-35.301-0.775-51.8
				s34.61-20.059,48.109-7.95c13.499,12.109,13.846,35.301,0.775,51.8C772.762,2832.901,751.223,2836.46,737.724,2824.352z"/>
			<path style="fill:#EEEEEE;" d="M781.318,2712.593l-9.399-8.431c-1.01-0.906-1.139-2.512-0.287-3.587l241.689-305.088
				c0.852-1.075,2.361-1.212,3.371-0.305l9.399,8.432c1.01,0.906,1.139,2.512,0.287,3.587L784.69,2712.287
				C783.838,2713.363,782.329,2713.499,781.318,2712.593z"/>
			<path style="fill:#EEEEEE;" d="M843.26,2768.156l-9.399-8.432c-1.01-0.906-1.139-2.512-0.287-3.587l241.689-305.088
				c0.852-1.075,2.361-1.212,3.371-0.306l9.4,8.432c1.01,0.906,1.139,2.512,0.287,3.587l-241.689,305.088
				C845.78,2768.926,844.271,2769.063,843.26,2768.156z"/>
		</g>
		<path style="fill:#DB965F;" d="M578.476,2379.044l73.554,43.389l-45.572,114.001l103.935,191.42c0,0,26.384,2.552,57.564,23.821
			c0,6.549-6.186,11.052-11.922,8.678l-16.86-6.977c0,0,40.774,35.732,37.576,67.21c0,0-7.195,44.239-43.972,35.732
			c0,0-35.178,3.403-63.96-77.419l-120.719-221.739c-5.894-10.825-7.533-23.689-4.562-35.794L578.476,2379.044z"/>
		<g>
			<path style="fill:#0F31AC;" d="M626.645,2268.929c0,0-48.968-1.333-66.557,177.325l84.747,33.18
				C644.835,2479.434,709.992,2280.471,626.645,2268.929z"/>
		</g>
		<g>
			<path style="fill:#F6471E;" d="M918.147,2040.224H710.468c0-3.942,0.144-7.839,0.432-11.681
				c4.781-65.26,49.258-116.405,103.407-116.405c54.149,0,98.626,51.144,103.407,116.405
				C918.003,2032.386,918.147,2036.283,918.147,2040.224z"/>
			<path style="opacity:0.1;" d="M710.468,2040.224c5.448-34.517,27.703-60.435,54.251-60.435c26.547,0,48.803,25.918,54.251,60.435
				H710.468z"/>
			<path style="fill:#F6471E;" d="M713.963,2036.94c2.931-14.651,9.147-27.863,17.711-37.529
				c9.333-10.535,21.069-16.337,33.046-16.337s23.712,5.802,33.046,16.337c8.564,9.666,14.78,22.879,17.711,37.529H713.963z"/>
			<path style="opacity:0.1;" d="M918.147,2040.224H710.468c0-3.942,0.144-7.839,0.432-11.681c0.28-0.027,0.56-0.045,0.839-0.045
				h205.135c0.28,0,0.56,0.018,0.839,0.045C918.003,2032.386,918.147,2036.283,918.147,2040.224z"/>
			<path style="fill:#F6471E;" d="M923.717,2048.343H704.898c-0.669,0-1.211-0.542-1.211-1.211v-14.716
				c0-0.669,0.542-1.211,1.211-1.211h218.819c0.669,0,1.211,0.542,1.211,1.211v14.716
				C924.928,2047.8,924.386,2048.343,923.717,2048.343z"/>
		</g>
		<path style="fill:#F6471E;" d="M823.056,2187.415c-6.714-3.509-14.834-8.524-23.887-15.632
			c-9.604-19.619-20.107-49.439-28.058-94.143c-2.441-13.711-4.645-28.828-6.502-45.47c-0.559-4.997-1.094-10.13-1.585-15.397
			h12.715c0,0,0.712,6.034,2.102,15.857c1.78,12.673,4.696,31.661,8.638,52.109C794.565,2126.727,807.018,2174.922,823.056,2187.415
			z"/>
	</g>
	<g>
		<g>
			<g>
				<path style="fill:#ACBCF8;" d="M3385.105,2834.87v788.653c0,8.763-7.108,15.87-15.87,15.87h-51.006
					c-8.763,0-15.871-7.108-15.871-15.87V2834.87c0-8.762,7.108-15.87,15.871-15.87h51.006
					C3377.997,2819,3385.105,2826.108,3385.105,2834.87z"/>
				<path style="fill:#ACBCF8;" d="M4426.863,2834.87v788.653c0,8.763-7.107,15.87-15.87,15.87h-51.006
					c-8.763,0-15.871-7.108-15.871-15.87V2834.87c0-8.762,7.108-15.87,15.871-15.87h51.006
					C4419.756,2819,4426.863,2826.108,4426.863,2834.87z"/>
			</g>
			<g style="opacity:0.1;">
				<rect x="3302.358" y="2886.895" width="82.747" height="529.013"/>
				<rect x="4344.117" y="2886.895" width="82.747" height="529.013"/>
			</g>
			<g>
				<g>
					<path style="fill:#ACBCF8;" d="M4470.005,2913.911v187.842c0,7.89-6.396,14.286-14.286,14.286H3283.405
						c-7.89,0-14.286-6.396-14.286-14.286v-187.842c0-7.89,6.396-14.286,14.286-14.286h1172.314
						C4463.609,2899.625,4470.005,2906.021,4470.005,2913.911z"/>
					<path style="fill:#ACBCF8;" d="M4470.005,3191.855v187.842c0,7.89-6.396,14.286-14.286,14.286H3283.405
						c-7.89,0-14.286-6.396-14.286-14.286v-187.842c0-7.89,6.396-14.286,14.286-14.286h1172.314
						C4463.609,3177.569,4470.005,3183.965,4470.005,3191.855z"/>
				</g>
				<g>
					<polygon style="fill:#829CF8;" points="3387.432,2899.625 3269.118,3050.033 3269.118,2966.529 3321.744,2899.625 					"/>
					<polygon style="fill:#829CF8;" points="3311.072,3177.569 3376.76,3177.569 3269.118,3314.412 3269.118,3230.901 					"/>
					<polygon style="fill:#829CF8;" points="3595.395,2899.625 3425.163,3116.039 3359.475,3116.039 3529.707,2899.625 					"/>
					<polygon style="fill:#829CF8;" points="3519.034,3177.569 3584.722,3177.569 3414.491,3393.983 3348.803,3393.983 					"/>
					<polygon style="fill:#829CF8;" points="3803.365,2899.625 3633.125,3116.039 3567.438,3116.039 3737.676,2899.625 					"/>
					<polygon style="fill:#829CF8;" points="3726.997,3177.569 3792.685,3177.569 3622.453,3393.983 3556.765,3393.983 					"/>
					<polygon style="fill:#829CF8;" points="4011.327,2899.625 3841.088,3116.039 3775.4,3116.039 3945.639,2899.625 					"/>
					<polygon style="fill:#829CF8;" points="3934.96,3177.569 4000.648,3177.569 3830.416,3393.983 3764.728,3393.983 					"/>
					<polygon style="fill:#829CF8;" points="4219.29,2899.625 4049.051,3116.039 3983.363,3116.039 4153.602,2899.625 					"/>
					<polygon style="fill:#829CF8;" points="4142.922,3177.569 4208.618,3177.569 4038.379,3393.983 3972.691,3393.983 					"/>
					<polygon style="fill:#829CF8;" points="4427.252,2899.625 4257.014,3116.039 4191.326,3116.039 4361.564,2899.625 					"/>
					<polygon style="fill:#829CF8;" points="4350.892,3177.569 4416.58,3177.569 4246.341,3393.983 4180.653,3393.983 					"/>
					<polygon style="fill:#829CF8;" points="4470.005,3026.142 4470.005,3109.646 4464.977,3116.039 4399.289,3116.039 					"/>
					<polygon style="fill:#829CF8;" points="4470.005,3290.514 4470.005,3374.025 4454.304,3393.983 4388.616,3393.983 					"/>
				</g>
			</g>
		</g>
		<g>
			<path style="fill:#F6471E;" d="M4281.88,3613.933h-315.427l5.757-19.095l13.862-45.97l16.21-53.75l17.059-56.579l16.203-53.75
				l17.066-56.579l16.203-53.75l21.67-71.862c4.477-14.859,18.169-25.029,33.686-25.029c7.758,0,15.064,2.546,20.984,6.945
				c5.919,4.399,10.46,10.651,12.702,18.084l21.67,71.862l16.203,53.75l17.066,56.579l16.203,53.75l17.059,56.579l16.209,53.75
				l13.862,45.97L4281.88,3613.933z"/>
			<polygon style="opacity:0.1;" points="4281.88,3613.933 3966.453,3613.933 3972.21,3594.838 4276.123,3594.838 			"/>
			<path style="fill:#F6471E;" d="M4315.3,3639.394h-382.267c-1.463,0-2.649-1.186-2.649-2.649v-32.185
				c0-1.463,1.186-2.649,2.649-2.649H4315.3c1.463,0,2.649,1.186,2.649,2.649v32.185
				C4317.949,3638.208,4316.763,3639.394,4315.3,3639.394z"/>
			<g>
				<g>
					<polygon style="fill:#FFFFFF;" points="4195.725,3328.21 4052.608,3328.21 4068.811,3274.46 4179.522,3274.46 					"/>
				</g>
				<g>
					<polygon style="fill:#FFFFFF;" points="4228.993,3438.539 4019.34,3438.539 4035.543,3384.789 4212.791,3384.789 					"/>
				</g>
				<g>
					<polygon style="fill:#FFFFFF;" points="4262.261,3548.867 3986.072,3548.867 4002.281,3495.117 4246.052,3495.117 					"/>
				</g>
			</g>
		</g>
	</g>
</g>
</svg>
